DBRep_DrawableShape

CASCADE Topology V1, (c) Matra-Datavision
Locations 0
Curve2ds 0
Curves 33
1 55.348793705738949 -9.9896049064614498 0 1 -2.8124501506306607e-16 -0 
1 319.90073051981528 -9.9896049064614498 0 0 -1 0 
1 319.90073051981528 -16.989604906461448 0 1 -2.8322015934315129e-16 0 
1 344.40073051981534 -16.989604906461455 0 0.70710678118654491 0.70710678118655013 0 
1 351.40073051981528 -9.9896049064614534 0 1 4.3368086899420202e-17 0 
1 391.40073051981528 -9.9896049064614516 0 0.99862988461078905 -0.052329280161702366 0 
2 651.78386020069945 -20.454604906461412 0 0 0 1 1 0 -0 -0 1 0 3.1750000000000389
1 671.70073051981524 -23.629604906461413 0 1 -0 -0 
1 671.70073051981524 -123.62960490646141 0 -0 -1 -0 
1 971.70073051981535 -123.62960490646135 0 1 1.8503717077085941e-16 -0 
1 971.70073051981535 110.01039509353859 0 -0 1 -0 
1 671.70073051981524 110.01039509353859 0 -1 -0 -0 
1 671.70073051981524 10.010395093538589 0 -0 -1 -0 
1 651.70073051981524 10.010395093538589 0 -1 -0 -0 
7 0 0  3 9 7  49.180778690120576 10.010395093538589 0  37.867089431685301 9.8645429615477696 0  25.253621538027762 9.2802355374495171 0  11.997874634589209 5.7482339876624575 0  8.8988359332466676 4.7445838651947385 0  5.9251287467820966 3.6419176784315175 0  3.2081897478623662 2.3360138552741603 0  1.1424952181793007 1.9481791032094329 0  0 1.952743605 0 
 0 4 0.68152022833311543 1 0.74214614755148511 1 0.8202185187689397 1 0.87626180401285092 1 0.93177174867104751 1 1 4
1 0 1.952743605 0 -1 -1.3659239968321316e-16 0 
2 -3.1749999999999998 8.3027436049999999 0 -0 -0 -1 1 0 0 0 -1 0 6.3499999999999996
1 -6.3499999999999668 2.8034822909687946 0 -0.86602540378444171 0.49999999999999473 0 
1 -20.085162904021214 10.733482290968709 0 1 0 0 
2 -16.410162904021213 13.908482290968712 0 0 0 1 1 0 -0 -0 1 0 3.1750000000000007
1 -13.235162904021212 13.908482290968712 0 0 1 0 
2 -14.822662904021213 15.495982290968712 0 0 0 1 1 0 -0 -0 1 0 1.5875000000000004
1 -14.822662904021225 17.083482290968711 0 -1 -5.7230302139765622e-17 0 
1 -87.735213802070248 17.0834822909687 0 0 -1 0 
1 -87.735213802070248 -17.062692103891596 0 1 1.4275101786542137e-16 0 
2 -14.822662904021213 -15.475192103891587 0 0 0 1 -1 0 0 0 -1 0 1.5874999999999986
1 -13.235162904021212 -13.887692103891586 0 -0 1 -0 
2 -16.410162904021213 -13.88769210389159 0 0 0 1 -1 0 0 0 -1 0 3.1750000000000007
1 -20.085162904021214 -10.712692103891589 0 -1 -0 -0 
1 -6.3499999999999668 -2.7826921038916694 0 0.86602540378444159 0.49999999999999495 -0 
2 -3.1749999999999998 -8.2819534179228711 0 -0 -0 -1 -1 0 0 0 1 -0 6.3499999999999988
1 0 -1.931953417922873 0 1 1.3659239968321316e-16 -0 
7 0 0  3 9 7  0 -1.931953417922873 0  1.1424952181793007 -1.9273889161323063 0  3.2081897478623671 -2.3152236681970342 0  5.9251287467820983 -3.6211274913543914 0  8.8988359332466693 -4.7237936781176098 0  11.997874634589211 -5.7274438005853305 0  25.253621538027765 -9.2594453503723759 0  37.867089431685294 -9.8437527744706443 0  49.180778690120569 -9.9896049064614498 0 
 0 4 0.068228251328952536 1 0.12373819598714909 1 0.17978148123106028 1 0.25785385244851489 1 0.31847977166688451 1 1 4
Polygon3D 0
PolygonOnTriangulations 0
Surfaces 1
1 24.157456723135262 -8.3223174909198594 0 -0 0 1 1 0 0 0 1 -0 
Triangulations 0

TShapes 70
Ve
1e-07
49.1807786901206 -9.98960490646145 0
0 0

0101101
*
Ve
1e-07
319.900730519815 -9.98960490646145 0
0 0

0101101
*
Ed
 1e-07 1 1 0
1  1 0 -6.16801501561838 264.551936814076
0

0101000
+70 0 -69 0 *
Ve
1e-07
319.900730519815 -16.9896049064614 0
0 0

0101101
*
Ed
 1e-07 1 1 0
1  2 0 0 7
0

0101000
+69 0 -67 0 *
Ve
1e-07
344.400730519815 -16.9896049064615 0
0 0

0101101
*
Ed
 1e-07 1 1 0
1  3 0 0 24.5000000000001
0

0101000
+67 0 -65 0 *
Ve
1e-07
351.400730519815 -9.98960490646145 0
0 0

0101101
*
Ed
 1e-07 1 1 0
1  4 0 0 9.89949493661163
0

0101000
+65 0 -63 0 *
Ve
1e-07
391.400730519815 -9.98960490646145 0
0 0

0101101
*
Ed
 1e-07 1 1 0
1  5 0 0 40
0

0101000
+63 0 -61 0 *
Ve
1e-07
651.617714736186 -23.6252547901007 0
0 0

0101101
*
Ed
 1e-07 1 1 0
1  6 0 0 260.57400066471
0

0101000
+61 0 -59 0 *
Ve
1e-07
651.7838602007 -23.6296049064614 0
0 0

0101101
*
Ed
 1e-07 1 1 0
1  7 0 4.66003578806686 4.71238898038473
0

0101000
+59 0 -57 0 *
Ve
1e-07
671.700730519815 -23.6296049064614 0
0 0

0101101
*
Ed
 1e-07 1 1 0
1  8 0 -19.9168703191157 0
0

0101000
+57 0 -55 0 *
Ve
1e-07
671.700730519815 -123.629604906461 0
0 0

0101101
*
Ed
 1e-07 1 1 0
1  9 0 -100 -0
0

0101000
+55 0 -53 0 *
Ve
1e-07
971.700730519815 -123.629604906461 0
0 0

0101101
*
Ed
 1e-07 1 1 0
1  10 0 -300 0
0

0101000
+53 0 -51 0 *
Ve
1e-07
971.700730519815 110.010395093539 0
0 0

0101101
*
Ed
 1e-07 1 1 0
1  11 0 -233.64 0
0

0101000
+51 0 -49 0 *
Ve
1e-07
671.700730519815 110.010395093539 0
0 0

0101101
*
Ed
 1e-07 1 1 0
1  12 0 -300 -0
0

0101000
+49 0 -47 0 *
Ve
1e-07
671.700730519815 10.0103950935386 0
0 0

0101101
*
Ed
 1e-07 1 1 0
1  13 0 -100 -0
0

0101000
+47 0 -45 0 *
Ve
1e-07
49.1807786901206 10.0103950935386 0
0 0

0101101
*
Ed
 1e-07 1 1 0
1  14 0 -20 602.519951829695
0

0101000
+45 0 -43 0 *
Ve
1e-07
0 1.952743605 0
0 0

0101101
*
Ed
 1e-07 1 1 0
1  15 0 0 1
0

0101000
+43 0 -41 0 *
Ve
1e-07
-3.175 1.952743605 0
0 0

0101101
*
Ed
 1e-07 1 1 0
1  16 0 0 3.175
0

0101000
+41 0 -39 0 *
Ve
1e-07
-6.34999999999997 2.8034822909688 0
0 0

0101101
*
Ed
 1e-07 1 1 0
1  17 0 1.5707963267949 2.09439510239319
0

0101000
+39 0 -37 0 *
Ve
1e-07
-20.0851629040212 10.7334822909687 0
0 0

0101101
*
Ed
 1e-07 1 1 0
1  18 0 2.42654856880697e-15 15.86
0

0101000
+37 0 -35 0 *
Ve
1e-07
-16.4101629040212 10.7334822909687 0
0 0

0101101
*
Ed
 1e-07 1 1 0
1  19 0 0 3.675
0

0101000
+35 0 -33 0 *
Ve
1e-07
-13.2351629040212 13.9084822909687 0
0 0

0101101
*
Ed
 1e-07 1 1 0
1  20 0 4.71238898038469 6.28318530717959
0

0101000
+33 0 -31 0 *
Ve
1e-07
-13.2351629040212 15.4959822909687 0
0 0

0101101
*
Ed
 1e-07 1 1 0
1  21 0 0 1.58749999999999
0

0101000
+31 0 -29 0 *
Ve
1e-07
-14.8226629040212 17.0834822909687 0
0 0

0101101
*
Ed
 1e-07 1 1 0
1  22 0 0 1.5707963267949
0

0101000
+29 0 -27 0 *
Ve
1e-07
-87.7352138020702 17.0834822909687 0
0 0

0101101
*
Ed
 1e-07 1 1 0
1  23 0 0 72.912550898049
0

0101000
+27 0 -25 0 *
Ve
1e-07
-87.7352138020702 -17.0626921038916 0
0 0

0101101
*
Ed
 1e-07 1 1 0
1  24 0 0 34.1461743948603
0

0101000
+25 0 -23 0 *
Ve
1e-07
-14.8226629040212 -17.0626921038916 0
0 0

0101101
*
Ed
 1e-07 1 1 0
1  25 0 0 72.912550898049
0

0101000
+23 0 -21 0 *
Ve
1e-07
-13.2351629040212 -15.4751921038916 0
0 0

0101101
*
Ed
 1e-07 1 1 0
1  26 0 1.57079632679489 3.14159265358979
0

0101000
+21 0 -19 0 *
Ve
1e-07
-13.2351629040212 -13.8876921038916 0
0 0

0101101
*
Ed
 1e-07 1 1 0
1  27 0 -1.58749999999999 0
0

0101000
+19 0 -17 0 *
Ve
1e-07
-16.4101629040212 -10.7126921038916 0
0 0

0101101
*
Ed
 1e-07 1 1 0
1  28 0 3.14159265358979 4.71238898038469
0

0101000
+17 0 -15 0 *
Ve
1e-07
-20.0851629040212 -10.7126921038916 0
0 0

0101101
*
Ed
 1e-07 1 1 0
1  29 0 -3.675 -0
0

0101000
+15 0 -13 0 *
Ve
1e-07
-6.34999999999997 -2.78269210389167 0
0 0

0101101
*
Ed
 1e-07 1 1 0
1  30 0 -15.86 0
0

0101000
+13 0 -11 0 *
Ve
1e-07
-3.175 -1.93195341792287 0
0 0

0101101
*
Ed
 1e-07 1 1 0
1  31 0 1.0471975511966 1.5707963267949
0

0101000
+11 0 -9 0 *
Ve
1e-07
0 -1.93195341792287 0
0 0

0101101
*
Ed
 1e-07 1 1 0
1  32 0 -3.175 0
0

0101000
+9 0 -7 0 *
Ed
 1e-07 1 1 0
1  33 0 0 1
0

0101000
+7 0 -70 0 *
Wi

0101100
+68 0 +66 0 +64 0 +62 0 +60 0 +58 0 +56 0 +54 0 +52 0 +50 0 
+48 0 +46 0 +44 0 +42 0 +40 0 +38 0 +36 0 +34 0 +32 0 +30 0 
+28 0 +26 0 +24 0 +22 0 +20 0 +18 0 +16 0 +14 0 +12 0 +10 0 
+8 0 +6 0 +5 0 *
Fa
0  1e-07 1 0

0101000
+4 0 *
Sh

0101000
+3 0 *
Co

1100000
+2 0 *

+1 0 