DBRep_DrawableShape

CASCADE Topology V1, (c) Matra-Datavision
Locations 0
Curve2ds 0
Curves 20
1 196.16801501561838 -4.2500725161431818e-14 0 1 7.7686217795834206e-17 -0 
1 460.71995182969465 -4.2500725161431774e-14 0 0 -1 0
1 460.71995182969465 -7.0000000000000426 0 1 0 0
1 485.21995182969471 -7.0000000000000426 0 0.70710678118654502 0.70710678118655002 0 
1 492.21995182969465 -4.2068980739809419e-14 0 1 -3.0814879110195791e-31 0 
1 532.21995182969465 -4.2068980739809431e-14 0 0.99862988461078905 -0.05232928016170238 0 
2 792.60635433266089 -10.340000000000005 0 0 0 1 1 0 -0 -0 1 0 3.2999999999999696
1 912.51995182969461 -13.640000000000004 0 1 8.7112510747252453e-17 -0
1 912.51995182969461 20 0 -0 1 -0
1 792.51995182969461 20 0 -1 -0 -0 
7 0 0  3 11 9  190 20 0  174.78174215931068 19.997239429314806 0  152.84834898360245 19.026664719083684 0  127.37229434259761 14.800609235892686 0  115.29900624084485 11.672065221051813 0  108.02238379987072 9.3075269799273421 0  103.57906534684626 7.60583378610177 0  99.771367793404636 5.993909367014421 0  95.550390747985844 4.0334429910255407 0  91.868137434849331 3.5427070148048325 0  89.519951829694591 3.6389760779066633 0 
 0 4 0.44552989750124938 1 0.64038654601638689 1 0.75457738142255726 1 0.81012873060062629 1 0.86421680783360688 1 0.89371839632545924 1 0.93118397610803949 1 1 4
2 89.519951829694591 13.638976077906664 0 -0 -0 -1 -1 0 0 0 1 -0 9.9999999999999947
1 40.776377162334491 34.454752847347258 0 -0.82903757255503707 0.55919290347075357 -0 
2 38.931040580880989 31.71892885791565 0 0 0 1 1 0 -0 -0 1 0 3.2999999999999972
1 38.931040580880982 35.018928857915647 0 -1 7.3075261716880367e-16 0 
1 19.939951829694625 35.018928857915661 0 1.2849803525754125e-16 -1 0 
1 19.939951829694632 -18.981071142084353 0 1 0 0 
2 38.899465826393971 -15.681071142084352 0 0 0 1 -1 0 0 0 -1 0 3.2999999999999972
1 61.882177797651622 -3.616959114220164 0 0.81915204428899469 0.57357643635104205 -0 
2 73.353706524672447 -20.000000000000053 0 -0 -0 -1 1 0 0 0 -1 0 20.000000000000004
Polygon3D 0
PolygonOnTriangulations 0
Surfaces 1
1 73.353706524672447 -20.000000000000053 0 0 0 1 1 0 -0 -0 1 0 
Triangulations 0

TShapes 44
Ve
1e-07
73.3537065246724 -5.55111512312578e-14 0
0 0

0101101
*
Ve
1e-07
460.719951829695 -4.25007251614318e-14 0
0 0

0101101
*
Ed
 1e-07 1 1 0
1  1 0 -122.814308490946 264.551936814076
0

0101000
+44 0 -43 0 *
Ve
1e-07
460.719951829695 -7.00000000000004 0
0 0

0101101
*
Ed
 1e-07 1 1 0
1  2 0 0 7
0

0101000
+43 0 -41 0 *
Ve
1e-07
485.219951829695 -7.00000000000004 0
0 0

0101101
*
Ed
 1e-07 1 1 0
1  3 0 0 24.5000000000001
0

0101000
+41 0 -39 0 *
Ve
1e-07
492.219951829695 -4.20689807398094e-14 0
0 0

0101101
*
Ed
 1e-07 1 1 0
1  4 0 0 9.89949493661162
0

0101000
+39 0 -37 0 *
Ve
1e-07
532.219951829695 -4.20689807398094e-14 0
0 0

0101101
*
Ed
 1e-07 1 1 0
1  5 0 0 40
0

0101000
+37 0 -35 0 *
Ve
1e-07
792.433667708127 -13.6354786192156 0
0 0

0101101
*
Ed
 1e-07 1 1 0
1  6 0 0 260.570727842628
0

0101000
+35 0 -33 0 *
Ve
1e-07
792.606354332661 -13.64 0
0 0

0101101
*
Ed
 1e-07 1 1 0
1  7 0 4.66003578806682 4.71238898038469
0

0101000
+33 0 -31 0 *
Ve
1e-07
912.519951829695 -13.64 0
0 0

0101101
*
Ed
 1e-07 1 1 0
1  8 0 -19.9135974970337 0
0

0101000
+31 0 -29 0 *
Ve
1e-07
912.519951829695 20 0
0 0

0101101
*
Ed
 1e-07 1 1 0
1  9 0 -33.64 0
0

0101000
+29 0 -27 0 *
Ve
1e-07
190 20 0
0 0

0101101
*
Ed
 1e-07 1 1 0
1  10 0 -20 602.519951829695
0

0101000
+27 0 -25 0 *
Ve
1e-07
89.5199518296946 3.63897607790666 0
0 0

0101101
*
Ed
 1e-07 1 1 0
1  11 0 0 1
0

0101000
+25 0 -23 0 *
Ve
1e-07
83.9280227949871 5.34860035235629 0
0 0

0101101
*
Ed
 1e-07 1 1 0
1  12 0 4.71238898038469 5.30580092606277
0

0101000
+23 0 -21 0 *
Ve
1e-07
40.7763771623345 34.4547528473473 0
0 0

0101101
*
Ed
 1e-07 1 1 0
1  13 0 -52.050289469586 0
0

0101000
+21 0 -19 0 *
Ve
1e-07
38.931040580881 35.0189288579156 0
0 0

0101101
*
Ed
 1e-07 1 1 0
1  14 0 0.97738438111681 1.5707963267949
0

0101000
+19 0 -17 0 *
Ve
1e-07
19.9399518296946 35.0189288579157 0
0 0

0101101
*
Ed
 1e-07 1 1 0
1  15 0 0 18.9910887511864
0

0101000
+17 0 -15 0 *
Ve
1e-07
19.9399518296946 -18.9810711420844 0
0 0

0101101
*
Ed
 1e-07 1 1 0
1  16 0 0 54
0

0101000
+15 0 -13 0 *
Ve
1e-07
38.899465826394 -18.9810711420844 0
0 0

0101101
*
Ed
 1e-07 1 1 0
1  17 0 0 18.9595139966993
0

0101000
+13 0 -11 0 *
Ve
1e-07
40.7922680663524 -18.384272888238 0
0 0

0101101
*
Ed
 1e-07 1 1 0
1  18 0 1.57079632679489 2.18166156499291
0

0101000
+11 0 -9 0 *
Ve
1e-07
61.8821777976516 -3.61695911422016 0
0 0

0101101
*
Ed
 1e-07 1 1 0
1  19 0 -25.7460258792429 0
0

0101000
+9 0 -7 0 *
Ed
 1e-07 1 1 0
1  20 0 4.10152374218668 4.71238898038469
0

0101000
+7 0 -44 0 *
Wi

0101100
+42 0 +40 0 +38 0 +36 0 +34 0 +32 0 +30 0 +28 0 +26 0 +24 0 
+22 0 +20 0 +18 0 +16 0 +14 0 +12 0 +10 0 +8 0 +6 0 +5 0 
*
Fa
0  1e-07 1 0

0101000
+4 0 *
Sh

0101000
+3 0 *
Co

1100000
+2 0 *

+1 0 //+
Physical Curve(1) -= {9};
//+
Physical Curve(1) -= {9};
//+
Physical Curve(1) -= {9};
//+
Physical Curve(1) -= {9, 10, 1};
//+
Physical Curve(1) -= {3};
//+
Physical Curve(1) -= {9};
//+
Recursive Delete {
  Curve{9}; 
}
//+
Recursive Delete {
  Curve{9}; Curve{10}; 
}
//+
Line(21) = {10, 7};
