DBRep_DrawableShape

CASCADE Topology V1, (c) Matra-Datavision
Locations 0
Curve2ds 0
Curves 14
1 196.16801501561838 -4.2500725161431818e-14 0 1 7.7686217795834206e-17 -0 
1 460.71995182969465 -4.2500725161431774e-14 0 0 -1 0 
1 460.71995182969465 -7.0000000000000426 0 1 0 0 
1 485.21995182969471 -7.0000000000000426 0 0.70710678118654502 0.70710678118655002 0 
1 492.21995182969465 -4.2068980739809419e-14 0 1 -3.0814879110195791e-31 0 
1 532.21995182969465 -4.2068980739809431e-14 0 0.99862988461078916 -0.052329280161702386 0 
1 792.51995182969461 -13.640000000000006 0 0 1 0 
1 224.51995182969458 20 0 -1 -0 -0 
7 0 0  3 11 9  190 20 0  174.78174215931065 19.99723942931481 0  152.84834898360248 19.026664719083687 0  127.37229434259758 14.800609235892685 0  115.29900624084485 11.672065221051811 0  108.02238379987071 9.3075269799273421 0  103.57906534684628 7.60583378610177 0  99.771367793404622 5.993909367014421 0  95.550390747985816 4.0334429910255398 0  91.868137434849316 3.5427070148048334 0  89.519951829694591 3.6389760779066633 0 
 0 4 0.44552989750124938 1 0.64038654601638689 1 0.75457738142255726 1 0.81012873060062629 1 0.86421680783360688 1 0.89371839632545924 1 0.93118397610803949 1 1 4
2 89.519951829694591 13.638976077906664 0 -0 -0 -1 -1 0 0 0 1 -0 9.9999999999999947
1 39.939951829694586 35.018928857915647 0 -0.82903757255503718 0.55919290347075357 -0 
1 39.939951829694586 35.018928857915647 0 3.8549410577262381e-16 -1 0 
1 61.882177797651622 -3.616959114220164 0 0.81915204428899457 0.57357643635104205 -0 
2 73.353706524672447 -20.000000000000053 0 -0 -0 -1 1 0 0 0 -1 0 20.000000000000004
Polygon3D 0
PolygonOnTriangulations 0
Surfaces 1
1 73.353706524672447 -20.000000000000053 0 0 0 1 1 0 -0 -0 1 0 
Triangulations 0

TShapes 32
Ve
1e-07
73.3537065246724 -5.55111512312578e-14 0
0 0

0101101
*
Ve
1e-07
460.719951829695 -4.25007251614318e-14 0
0 0

0101101
*
Ed
 1e-07 1 1 0
1  1 0 -122.814308490946 264.551936814076
0

0101000
+32 0 -31 0 *
Ve
1e-07
460.719951829695 -7.00000000000004 0
0 0

0101101
*
Ed
 1e-07 1 1 0
1  2 0 0 7
0

0101000
+31 0 -29 0 *
Ve
1e-07
485.219951829695 -7.00000000000004 0
0 0

0101101
*
Ed
 1e-07 1 1 0
1  3 0 0 24.5000000000001
0

0101000
+29 0 -27 0 *
Ve
1e-07
492.219951829695 -4.20689807398094e-14 0
0 0

0101101
*
Ed
 1e-07 1 1 0
1  4 0 0 9.89949493661162
0

0101000
+27 0 -25 0 *
Ve
1e-07
532.219951829695 -4.20689807398094e-14 0
0 0

0101101
*
Ed
 1e-07 1 1 0
1  5 0 0 40
0

0101000
+25 0 -23 0 *
Ve
1e-07
792.519951829695 -13.64 0
0 0

0101101
*
Ed
 1e-07 1 1 0
1  6 0 0 260.657130345594
0

0101000
+23 0 -21 0 *
Ve
1e-07
792.519951829695 20 0
0 0

0101101
*
Ed
 1e-07 1 1 0
1  7 0 0 33.64
0

0101000
+21 0 -19 0 *
Ve
1e-07
190 20 0
0 0

0101101
*
Ed
 1e-07 1 1 0
1  8 0 -568 34.5199518296946
0

0101000
+19 0 -17 0 *
Ve
1e-07
89.5199518296946 3.63897607790666 0
0 0

0101101
*
Ed
 1e-07 1 1 0
1  9 0 0 1
0

0101000
+17 0 -15 0 *
Ve
1e-07
83.9280227949871 5.34860035235629 0
0 0

0101101
*
Ed
 1e-07 1 1 0
1  10 0 4.71238898038469 5.30580092606277
0

0101000
+15 0 -13 0 *
Ve
1e-07
39.9399518296946 35.0189288579156 0
0 0

0101101
*
Ed
 1e-07 1 1 0
1  11 0 -53.0592007183996 0
0

0101000
+13 0 -11 0 *
Ve
1e-07
39.9399518296946 -18.9810711420844 0
0 0

0101101
*
Ed
 1e-07 1 1 0
1  12 0 0 54
0

0101000
+11 0 -9 0 *
Ve
1e-07
61.8821777976516 -3.61695911422016 0
0 0

0101101
*
Ed
 1e-07 1 1 0
1  13 0 -26.7865118825436 0
0

0101000
+9 0 -7 0 *
Ed
 1e-07 1 1 0
1  14 0 4.10152374218668 4.71238898038469
0

0101000
+7 0 -32 0 *
Wi

0101100
+30 0 +28 0 +26 0 +24 0 +22 0 +20 0 +18 0 +16 0 +14 0 +12 0 
+10 0 +8 0 +6 0 +5 0 *
Fa
0  1e-07 1 0

0101000
+4 0 *
Sh

0101000
+3 0 *
Co

1100000
+2 0 *

+1 0 