DBRep_DrawableShape

CASCADE Topology V1, (c) Matra-Datavision
Locations 17
1
              1               0               0               0 
              0               1               0               0 
              0               0               1               0 
1
              1               0               0               0 
              0               1               0               0 
              0               0               1               0 
1
              1               0               0               0 
              0               1               0               0 
              0               0               1               0 
2  2 1 3 1 0
1
              1               0               0               0 
              0               1               0               0 
              0               0               1               0 
1
              1               0               0         533.235 
              0               0              -1         -7.5295 
              0               1               0               0 
2  5 1 6 1 0
2  3 -1 2 -1 0
2  5 1 6 1 2 1 3 1 0
2  3 -1 2 -1 6 -1 5 -1 0
1
              1               0               0               0 
              0               1               0               0 
              0               0               1              15 
2  11 1 5 1 6 1 2 1 3 1 0
2  11 -1 0
1
              1               0               0               0 
              0               1               0               0 
              0               0               1               0 
1
              1               0               0             500 
              0               1               0         -8.3245 
              0               0               1           -17.5 
2  14 1 15 1 2 1 3 1 0
2  14 1 15 1 0
Curve2ds 35
1 0 0 0 -1 
1 6.2831853071795862 0 0 -1 
1 0 3.1415926535897931 1 0 
1 6.2831853071795862 -1.794999999999999 -1 -0 
2 0 0 1 0 -0 1 0.79500000000000004
1 0 0 1 0 
1 0 -15 1 0 
8 3.1415926535897931 4.7123889803846897
1 6.2831853071795862 0 0 1 
8 3.1415926535897931 4.7123889803846897
1 0 0 0 1 
1 0 4.7123889803846897 1 0 
2 17.5 33.235000000000014 0 1 -1 0 1.7949999999999999
1 0 0 0 1 
1 0 0 1 0 
1 0 0 1 0 
1 0 0 1 0 
1 35 0 0 1 
1 0 0 1 0 
1 0 0 1 0 
1 0 100 1 0 
1 0 0 0 -1 
1 0 0 0 1 
1 0 0 0 1 
1 0 20 1 0 
1 0 0 0 -1 
1 100 0 0 1 
1 35 0 0 -1 
1 100 0 0 1 
1 0 -20 1 0 
1 0 100 1 0 
1 35 0 0 -1 
1 0 0 0 1 
1 0 -20 1 0 
1 0 0 1 0 
1 35 0 0 1 
1 0 20 1 0 
Curves 17
1 0.79500000000000004 -1.9000000000000001e-16 0 0 0 1 
2 533.23500000000001 -9.3245000000000005 0 0 1 0 1 0 -2.4492935982948326e-16 -2.4492935982948326e-16 0 -1 0.79500000000000004
2 0 0 0 0 0 1 1 0 -0 -0 1 0 0.79500000000000004
2 535.02999999999997 -9.3245000000000005 -4.3964820089392242e-16 -2.4492935982948326e-16 0 -1 1 0 -2.4492935982948326e-16 0 -1 -0 1
2 533.23500000000001 -8.3245000000000005 0 0 1 0 1 0 -2.4492935982948326e-16 -2.4492935982948326e-16 0 -1 1.7949999999999999
1 0 0 0 1 0 -0 
1 0 0 0 0 0 1 
1 0 0 35 1 0 -0 
1 100 0 0 0 0 1 
1 0 0 0 -0 1 0 
1 0 20 0 1 0 -0 
1 100 0 0 -0 1 0 
1 100 0 35 -0 1 0 
1 100 20 0 0 0 1 
1 0 0 35 -0 1 0 
1 0 20 0 0 0 1 
1 0 20 35 1 0 -0 
Polygon3D 0
PolygonOnTriangulations 0
Surfaces 9
2 0 0 0 -0 -0 -1 1 0 -0 -0 1 -0 0.79500000000000004
5 533.23500000000001 -9.3245000000000005 0 -0 -1 -0 1 0 -2.4492935982948326e-16 -2.4492935982948326e-16 0 -1 1.7949999999999999 1
1 0 0 0 0 0 1 1 0 -0 -0 1 0 
1 0 0 0 -0 1 0 0 0 1 1 0 -0 
1 0 0 0 0 0 1 1 0 -0 -0 1 0 
1 0 0 0 1 0 -0 0 0 1 0 -1 0 
1 0 0 35 0 0 1 1 0 -0 -0 1 0 
1 100 0 0 1 0 -0 0 0 1 0 -1 0 
1 0 20 0 -0 1 0 0 0 1 1 0 -0 
Triangulations 0

TShapes 51
Ve
1e-07
534.03 -9.3245 -1.94718841064439e-16
0 0

0101101
*
Ve
1.50000003e-07
0.795 -0 0
0 0

0101101
*
Ed
 1e-07 1 1 0
1  1 0 1.795 15
3  1 2CN 1 0 1.795 15
0

0101000
+51 10 -50 11 *
Ed
 1e-07 1 1 0
1  2 0 -0 6.28318530717959
2  3 2 0 -0 6.28318530717959
2  4 1 9 -0 6.28318530717959
4 G1 2 0 1 9
0

0101000
+51 0 -51 0 *
Ed
 1e-07 1 1 0
1  3 0 0 6.28318530717959
2  5 3 0 0 6.28318530717959
2  6 1 0 0 6.28318530717959
2  7 1 13 0 6.28318530717959
0

0101000
+50 0 -50 0 *
Wi

0101100
-49 9 +48 0 +49 9 +47 12 *
Fa
0  1e-07 1 7

0101000
+46 8 *
Ve
1e-07
535.03 -8.3245 -4.39648200893922e-16
0 0

0101101
*
Ed
 1e-07 1 1 0
1  4 0 3.14159265358979 4.71238898038469
3  8 9CN 2 0 3.14159265358979 4.71238898038469
0

0101000
+51 0 -44 0 *
Ed
 1e-07 1 1 0
1  5 0 -0 6.28318530717959
2  10 2 0 -0 6.28318530717959
2  11 4 16 -0 6.28318530717959
4 G1 2 0 4 16
0

0101000
+44 0 -44 0 *
Wi

0101100
-43 0 +48 0 +43 0 -42 0 *
Fa
0  0 2 0

0101000
+41 0 *
Wi

0101100
-47 0 *
Fa
0  1e-07 3 0

0111000
-39 0 *
Wi

0101100
-42 0 *
Ve
1e-07
100 0 0
0 0

0101101
*
Ve
1e-07
0 0 0
0 0

0101101
*
Ed
 1e-07 1 1 0
1  6 0 0 100
2  12 4 0 0 100
2  13 5 0 0 100
0

0101000
-36 0 +35 0 *
Ve
1e-07
0 0 35
0 0

0101101
*
Ed
 1e-07 1 1 0
1  7 0 0 35
2  14 6 0 0 35
2  15 4 0 0 35
0

0101000
-33 0 +35 0 *
Ve
1e-07
100 0 35
0 0

0101101
*
Ed
 1e-07 1 1 0
1  8 0 0 100
2  16 4 0 0 100
2  17 7 0 0 100
0

0101000
-31 0 +33 0 *
Ed
 1e-07 1 1 0
1  9 0 0 35
2  18 8 0 0 35
2  19 4 0 0 35
0

0101000
-31 0 +36 0 *
Wi

0101100
-34 16 +32 16 +30 16 -29 16 *
Fa
0  1e-07 4 17

0101000
+37 8 +28 8 *
Ve
1e-07
0 20 0
0 0

0101101
*
Ed
 1e-07 1 1 0
1  10 0 0 20
2  20 6 0 0 20
2  21 5 0 0 20
0

0101000
-26 0 +35 0 *
Ve
1e-07
100 20 0
0 0

0101101
*
Ed
 1e-07 1 1 0
1  11 0 0 100
2  22 9 0 0 100
2  23 5 0 0 100
0

0101000
-24 0 +26 0 *
Ed
 1e-07 1 1 0
1  12 0 0 20
2  24 8 0 0 20
2  25 5 0 0 20
0

0101000
-24 0 +36 0 *
Wi

0101100
-25 0 -23 0 +22 0 +34 0 *
Fa
0  1e-07 5 0

0111000
+21 0 *
Ve
1e-07
100 20 35
0 0

0101101
*
Ed
 1e-07 1 1 0
1  13 0 0 20
2  26 8 0 0 20
2  27 7 0 0 20
0

0101000
-19 0 +31 0 *
Ed
 1e-07 1 1 0
1  14 0 0 35
2  28 8 0 0 35
2  29 9 0 0 35
0

0101000
-19 0 +24 0 *
Wi

0101100
-29 0 -18 0 +17 0 +22 0 *
Fa
0  1e-07 8 0

0111000
+16 0 *
Ve
1e-07
0 20 35
0 0

0101101
*
Ed
 1e-07 1 1 0
1  15 0 0 20
2  30 6 0 0 20
2  31 7 0 0 20
0

0101000
-14 0 +33 0 *
Ed
 1e-07 1 1 0
1  16 0 0 35
2  32 6 0 0 35
2  33 9 0 0 35
0

0101000
-14 0 +26 0 *
Wi

0101100
-32 0 -13 0 +12 0 +25 0 *
Fa
0  1e-07 6 0

0111000
+11 0 *
Ed
 1e-07 1 1 0
1  17 0 0 100
2  34 9 0 0 100
2  35 7 0 0 100
0

0101000
-19 0 +14 0 *
Wi

0101100
-13 0 -9 0 +18 0 +30 0 *
Fa
0  1e-07 7 0

0111000
+8 0 *
Wi

0101100
-23 0 -17 0 +9 0 +12 0 *
Fa
0  1e-07 9 0

0111000
+6 0 *
Sh

0101100
-45 4 +40 0 +38 12 -27 4 -20 16 +15 16 -10 16 +7 16 +5 16 *
So

0100000
+4 0 *
Co

0100000
+3 0 *
Co

1100000
+2 1 *

+1 0 