DBRep_DrawableShape

CASCADE Topology V1, (c) Matra-Datavision
Locations 11
1
              1               0               0               0 
              0               1               0               0 
              0               0               1               0 
1
              1               0               0               0 
              0               1               0               0 
              0               0               1               0 
1
              1               0               0         533.235 
              0 2.22044604925031e-16              -1         -7.5295 
              0               1 2.22044604925031e-16               0 
2  2 1 3 1 0
1
              1               0               0               0 
              0               1               0               0 
              0               0               1               0 
1
              1               0               0             500 
              0               1               0         -8.3245 
              0               0               1           -17.5 
2  5 1 6 1 0
2  3 -1 2 -1 0
1
              1               0               0               0 
              0               1               0               0 
              0               0               1              15 
2  9 1 2 1 3 1 0
2  9 -1 0
Curve2ds 31
1 6.2831853071795862 -0.79499999999999904 -1 0 
2 17.5 33.235000000000014 0 1 -1 0 0.79500000000000004
1 0 0 0 -1 
1 6.2831853071795862 0 0 -1 
2 0 0 1 0 -0 1 0.79500000000000004
1 0 0 1 0 
1 0 -15 1 0 
1 0 0 0 1 
1 0 0 1 0 
1 0 0 1 0 
1 0 100 1 0 
1 0 0 1 0 
1 0 0 1 0 
1 35 0 0 1 
1 0 0 1 0 
1 0 0 0 -1 
1 0 0 0 1 
1 0 0 0 1 
1 0 20 1 0 
1 0 0 0 -1 
1 100 0 0 1 
1 35 0 0 -1 
1 100 0 0 1 
1 0 -20 1 0 
1 0 100 1 0 
1 35 0 0 -1 
1 0 0 0 1 
1 0 -20 1 0 
1 0 0 1 0 
1 35 0 0 1 
1 0 20 1 0 
Curves 15
2 533.23500000000001 -8.3245000000000005 1.7652546091539968e-16 0 1 -2.2204460492503131e-16 1 0 0 0 -2.2204460492503131e-16 -1 0.79500000000000004
1 0.79500000000000004 -1.9000000000000001e-16 0 0 0 1 
2 0 0 0 0 0 1 1 0 -0 -0 1 0 0.79500000000000004
1 0 0 0 1 0 -0 
1 100 0 0 0 0 1 
1 0 0 0 0 0 1 
1 0 0 35 1 0 -0 
1 0 0 0 -0 1 0 
1 0 20 0 1 0 -0 
1 100 0 0 -0 1 0 
1 100 0 35 -0 1 0 
1 100 20 0 0 0 1 
1 0 0 35 -0 1 0 
1 0 20 0 0 0 1 
1 0 20 35 1 0 -0 
Polygon3D 0
PolygonOnTriangulations 0
Surfaces 8
2 0 0 0 -0 -0 -1 1 0 -0 -0 1 -0 0.79500000000000004
1 0 0 0 -0 1 0 0 0 1 1 0 -0 
1 0 0 0 0 0 1 1 0 -0 -0 1 0 
1 0 0 0 0 0 1 1 0 -0 -0 1 0 
1 100 0 0 1 0 -0 0 0 1 0 -1 0 
1 0 0 0 1 0 -0 0 0 1 0 -1 0 
1 0 0 35 0 0 1 1 0 -0 -0 1 0 
1 0 20 0 -0 1 0 0 0 1 1 0 -0 
Triangulations 0

TShapes 46
Ve
1.00000000384719e-07
534.03 -8.3245 -1.34745390846003e-17
0 0

0101101
*
Ed
 1e-07 1 1 0
1  1 0 0 6.28318530717959
2  1 1 4 0 6.28318530717959
2  2 2 7 0 6.28318530717959
0

0101100
+46 0 -46 0 *
Ve
1.50000003330669e-07
0.795 -0 0
0 0

0101101
*
Ed
 1e-07 1 1 0
1  2 0 0.794999999999999 15
3  3 4CN 1 0 0.794999999999999 15
0

0101000
+46 8 -44 9 *
Ed
 1e-07 1 1 0
1  3 0 0 6.28318530717959
2  5 3 0 0 6.28318530717959
2  6 1 0 0 6.28318530717959
2  7 1 11 0 6.28318530717959
0

0101000
+44 0 -44 0 *
Wi

0101100
+45 0 -43 4 +42 10 +43 4 *
Fa
0  1e-07 1 4

0101000
+41 0 *
Ve
1e-07
100 0 0
0 0

0101101
*
Ve
1e-07
0 0 0
0 0

0101101
*
Ed
 1e-07 1 1 0
1  4 0 0 100
2  8 2 0 0 100
2  9 4 0 0 100
0

0101000
-39 0 +38 0 *
Ve
1e-07
100 0 35
0 0

0101101
*
Ed
 1e-07 1 1 0
1  5 0 0 35
2  10 5 0 0 35
2  11 2 0 0 35
0

0101000
-36 0 +39 0 *
Ve
1e-07
0 0 35
0 0

0101101
*
Ed
 1e-07 1 1 0
1  6 0 0 35
2  12 6 0 0 35
2  13 2 0 0 35
0

0101000
-34 0 +38 0 *
Ed
 1e-07 1 1 0
1  7 0 0 100
2  14 2 0 0 100
2  15 7 0 0 100
0

0101000
-36 0 +34 0 *
Wi

0101100
-37 7 -35 7 +33 7 +32 7 *
Wi

0101100
-45 0 *
Fa
0  1e-07 2 7

0101000
+31 0 +30 0 *
Wi

0101100
-42 0 *
Fa
0  1e-07 3 0

0111000
-28 0 *
Ve
1e-07
0 20 0
0 0

0101101
*
Ed
 1e-07 1 1 0
1  8 0 0 20
2  16 6 0 0 20
2  17 4 0 0 20
0

0101000
-26 0 +38 0 *
Ve
1e-07
100 20 0
0 0

0101101
*
Ed
 1e-07 1 1 0
1  9 0 0 100
2  18 8 0 0 100
2  19 4 0 0 100
0

0101000
-24 0 +26 0 *
Ed
 1e-07 1 1 0
1  10 0 0 20
2  20 5 0 0 20
2  21 4 0 0 20
0

0101000
-24 0 +39 0 *
Wi

0101100
-25 0 -23 0 +22 0 +37 0 *
Fa
0  1e-07 4 0

0111000
+21 0 *
Ve
1e-07
100 20 35
0 0

0101101
*
Ed
 1e-07 1 1 0
1  11 0 0 20
2  22 5 0 0 20
2  23 7 0 0 20
0

0101000
-19 0 +36 0 *
Ed
 1e-07 1 1 0
1  12 0 0 35
2  24 5 0 0 35
2  25 8 0 0 35
0

0101000
-19 0 +24 0 *
Wi

0101100
-35 0 -18 0 +17 0 +22 0 *
Fa
0  1e-07 5 0

0111000
+16 0 *
Ve
1e-07
0 20 35
0 0

0101101
*
Ed
 1e-07 1 1 0
1  13 0 0 20
2  26 6 0 0 20
2  27 7 0 0 20
0

0101000
-14 0 +34 0 *
Ed
 1e-07 1 1 0
1  14 0 0 35
2  28 6 0 0 35
2  29 8 0 0 35
0

0101000
-14 0 +26 0 *
Wi

0101100
-33 0 -13 0 +12 0 +25 0 *
Fa
0  1e-07 6 0

0111000
+11 0 *
Ed
 1e-07 1 1 0
1  15 0 0 100
2  30 8 0 0 100
2  31 7 0 0 100
0

0101000
-19 0 +14 0 *
Wi

0101100
-13 0 -9 0 +18 0 +32 0 *
Fa
0  1e-07 7 0

0111000
+8 0 *
Wi

0101100
-23 0 -17 0 +9 0 +12 0 *
Fa
0  1e-07 8 0

0111000
+6 0 *
Sh

0101100
-40 0 -29 0 +27 10 -20 7 +15 7 -10 7 +7 7 +5 7 *
So

0100000
+4 0 *
Co

0100000
+3 0 *
Co

1100000
+2 1 *

+1 0 